<svg xmlns="http://www.w3.org/2000/svg" width="640" height="360" viewBox="0 0 640 360"><defs><pattern id="h" width="12" height="12" patternUnits="userSpaceOnUse"><path d="M0 12 12 0" stroke="#ddc4eb" stroke-width=".6" opacity=".08"/></pattern><radialGradient id="g"><stop stop-color="#654473"/><stop offset="1" stop-color="#24172e"/></radialGradient></defs><rect width="640" height="360" fill="url(#g)"/><rect width="640" height="360" fill="url(#h)"/><g opacity=".78"><rect x="60" y="70" width="43" height="43" rx="4" fill="#d4bfa1" stroke="#271432" stroke-width="3"/><path d="M67 105v-27h28" fill="none" stroke="#e3ccee" opacity=".5"/><rect x="106" y="70" width="43" height="43" rx="4" fill="#d4bfa1" stroke="#271432" stroke-width="3"/><path d="M113 105v-27h28" fill="none" stroke="#e3ccee" opacity=".5"/><rect x="106" y="116" width="43" height="43" rx="4" fill="#d4bfa1" stroke="#271432" stroke-width="3"/><path d="M113 151v-27h28" fill="none" stroke="#e3ccee" opacity=".5"/><rect x="106" y="162" width="43" height="43" rx="4" fill="#d4bfa1" stroke="#271432" stroke-width="3"/><path d="M113 197v-27h28" fill="none" stroke="#e3ccee" opacity=".5"/><rect x="244" y="116" width="43" height="43" rx="4" fill="#c4a2d4" stroke="#271432" stroke-width="3"/><path d="M251 151v-27h28" fill="none" stroke="#e3ccee" opacity=".5"/><rect x="290" y="116" width="43" height="43" rx="4" fill="#c4a2d4" stroke="#271432" stroke-width="3"/><path d="M297 151v-27h28" fill="none" stroke="#e3ccee" opacity=".5"/><rect x="336" y="116" width="43" height="43" rx="4" fill="#c4a2d4" stroke="#271432" stroke-width="3"/><path d="M343 151v-27h28" fill="none" stroke="#e3ccee" opacity=".5"/><rect x="290" y="162" width="43" height="43" rx="4" fill="#c4a2d4" stroke="#271432" stroke-width="3"/><path d="M297 197v-27h28" fill="none" stroke="#e3ccee" opacity=".5"/><rect x="428" y="70" width="43" height="43" rx="4" fill="#d4bfa1" stroke="#271432" stroke-width="3"/><path d="M435 105v-27h28" fill="none" stroke="#e3ccee" opacity=".5"/><rect x="428" y="116" width="43" height="43" rx="4" fill="#d4bfa1" stroke="#271432" stroke-width="3"/><path d="M435 151v-27h28" fill="none" stroke="#e3ccee" opacity=".5"/><rect x="428" y="162" width="43" height="43" rx="4" fill="#d4bfa1" stroke="#271432" stroke-width="3"/><path d="M435 197v-27h28" fill="none" stroke="#e3ccee" opacity=".5"/><rect x="428" y="208" width="43" height="43" rx="4" fill="#d4bfa1" stroke="#271432" stroke-width="3"/><path d="M435 243v-27h28" fill="none" stroke="#e3ccee" opacity=".5"/><rect x="152" y="254" width="43" height="43" rx="4" fill="#c4a2d4" stroke="#271432" stroke-width="3"/><path d="M159 289v-27h28" fill="none" stroke="#e3ccee" opacity=".5"/><rect x="198" y="254" width="43" height="43" rx="4" fill="#c4a2d4" stroke="#271432" stroke-width="3"/><path d="M205 289v-27h28" fill="none" stroke="#e3ccee" opacity=".5"/><rect x="198" y="208" width="43" height="43" rx="4" fill="#c4a2d4" stroke="#271432" stroke-width="3"/><path d="M205 243v-27h28" fill="none" stroke="#e3ccee" opacity=".5"/><rect x="244" y="208" width="43" height="43" rx="4" fill="#c4a2d4" stroke="#271432" stroke-width="3"/><path d="M251 243v-27h28" fill="none" stroke="#e3ccee" opacity=".5"/><rect x="474" y="254" width="43" height="43" rx="4" fill="#d4bfa1" stroke="#271432" stroke-width="3"/><path d="M481 289v-27h28" fill="none" stroke="#e3ccee" opacity=".5"/><rect x="520" y="254" width="43" height="43" rx="4" fill="#d4bfa1" stroke="#271432" stroke-width="3"/><path d="M527 289v-27h28" fill="none" stroke="#e3ccee" opacity=".5"/><rect x="474" y="300" width="43" height="43" rx="4" fill="#d4bfa1" stroke="#271432" stroke-width="3"/><path d="M481 335v-27h28" fill="none" stroke="#e3ccee" opacity=".5"/><rect x="520" y="300" width="43" height="43" rx="4" fill="#d4bfa1" stroke="#271432" stroke-width="3"/><path d="M527 335v-27h28" fill="none" stroke="#e3ccee" opacity=".5"/></g><path d="M30 30h22m-11-11v22m550 270h20m-10-10v20M70 320l6-10 6 10-6 10Z" fill="none" stroke="#c9ae87" stroke-width="2" opacity=".55"/></svg>