<svg xmlns="http://www.w3.org/2000/svg" width="640" height="360" viewBox="0 0 640 360"><defs><pattern id="h" width="12" height="12" patternUnits="userSpaceOnUse"><path d="M0 12 12 0" stroke="#ddc4eb" stroke-width=".6" opacity=".08"/></pattern><radialGradient id="g"><stop stop-color="#654473"/><stop offset="1" stop-color="#24172e"/></radialGradient></defs><rect width="640" height="360" fill="url(#g)"/><rect width="640" height="360" fill="url(#h)"/><g opacity=".78"><g transform="translate(70 100) rotate(-16)"><path d="M0 0q70-40 140 0l-10 65q-50 70-115 0Z" fill="#b294c5" stroke="#25152e" stroke-width="5"/><path d="M20 28q20-18 40 3q-20 19-40-3m65 3q20-20 40-3q-15 23-40 3" fill="#25152e"/></g><g transform="translate(440 135) rotate(14)"><path d="M0 0q70-40 140 0l-10 65q-50 70-115 0Z" fill="#b294c5" stroke="#25152e" stroke-width="5"/><path d="M20 28q20-18 40 3q-20 19-40-3m65 3q20-20 40-3q-15 23-40 3" fill="#25152e"/></g><path d="M275 70q80-40 65 30q-3 18-32 30v35m0 18v8" stroke="#dfcbb0" stroke-width="10" fill="none"/></g><path d="M30 30h22m-11-11v22m550 270h20m-10-10v20M70 320l6-10 6 10-6 10Z" fill="none" stroke="#c9ae87" stroke-width="2" opacity=".55"/></svg>